<svg width="593" height="824" viewBox="0 0 593 824" fill="none" xmlns="http://www.w3.org/2000/svg">
<path d="M204.042 6.68875C204.042 22.4241 226.053 66.483 249.636 97.4292C261.165 112.64 292.61 143.062 319.861 165.616C401.092 233.278 439.873 284.68 447.734 337.131L450.879 358.111L439.873 335.033C412.622 276.812 371.22 232.228 302.043 185.547C285.273 174.008 258.545 150.929 243.347 133.62C215.047 102.674 215.047 102.674 211.379 116.836C204.042 145.684 216.62 213.346 238.106 262.126C240.203 267.371 239.679 271.567 236.534 271.567C230.769 271.567 213.999 234.327 200.373 190.268C188.844 151.454 186.223 14.5564 197.229 3.01717C202.47 -1.70343 204.042 -1.17892 204.042 6.68875Z" fill="black" fill-opacity="0.2"/>
<path d="M13.2802 151.454C33.719 190.792 101.324 248.488 157.4 273.665C173.122 281.008 204.566 289.4 227.625 292.547C329.295 307.234 388.514 329.788 422.055 367.552C447.734 395.351 440.397 398.498 410.525 372.273C376.461 341.851 339.776 329.788 256.449 321.395C178.362 313.003 143.25 304.611 97.1315 281.008L66.2113 265.273L69.8798 280.483C82.4575 330.312 146.394 427.871 186.747 457.768C241.251 497.631 289.465 501.303 363.359 470.356C434.109 440.984 443.542 446.753 376.985 478.749C325.102 503.401 319.337 504.974 280.032 504.974C219.764 504.974 179.935 485.567 122.811 427.347C86.126 389.582 77.7409 378.043 57.8262 331.886C26.9061 261.077 5.4192 198.135 1.75071 163.518C-2.44185 131.522 0.702566 127.851 13.2802 151.454Z" fill="black" fill-opacity="0.2"/>
<path d="M586.089 224.885C600.239 265.273 590.806 299.89 557.789 328.738C545.212 339.753 539.447 348.145 541.543 353.915C545.736 364.93 531.062 386.959 519.532 386.959C514.291 386.959 504.858 383.288 498.045 378.042C485.992 369.65 484.943 370.175 474.986 382.239C459.264 402.17 465.029 434.165 494.377 484.518C508.003 507.597 524.773 543.263 531.586 563.195C563.554 653.411 532.11 754.117 471.842 754.117C451.927 754.117 439.873 746.774 439.873 734.71C439.873 730.514 443.542 731.563 450.355 738.381C462.933 750.97 467.125 751.494 487.04 741.004C509.051 729.465 513.243 718.45 513.243 670.195C513.243 630.332 511.147 621.94 483.895 553.229C458.74 490.288 453.499 472.454 451.403 436.263C449.831 403.219 450.879 390.106 458.216 375.944C470.269 351.817 487.04 334.508 497.521 334.508C502.238 334.508 511.671 328.214 519.008 320.871C542.591 295.694 533.158 241.145 503.286 233.277C491.756 230.13 454.547 244.817 458.74 251.111C463.457 258.979 455.596 276.812 447.21 276.812C435.157 276.812 438.825 258.979 454.023 244.292C502.238 198.135 561.982 244.292 534.206 306.184C528.441 319.822 524.773 332.41 526.345 333.984C531.062 338.704 562.506 319.297 572.987 304.611C588.709 283.631 590.282 247.964 576.656 229.606C563.554 211.773 563.03 208.625 572.987 208.625C577.18 208.625 582.945 215.969 586.089 224.885Z" fill="black" fill-opacity="0.2"/>
<path d="M453.499 526.479C463.457 622.989 412.098 690.651 295.754 733.661C255.401 748.347 229.197 765.132 195.133 797.651L167.357 823.877V774.048C167.357 695.372 198.277 597.813 238.107 550.607C257.497 527.528 259.594 532.249 243.347 560.572C223.433 595.715 204.042 662.327 200.374 708.484L197.229 749.921L225.529 733.136C241.251 724.22 264.31 711.631 277.412 705.862C362.311 668.097 395.852 642.921 419.959 598.337C435.157 570.013 447.735 518.087 442.494 502.352C440.922 496.582 441.446 491.861 444.59 491.861C447.211 491.861 451.403 507.597 453.499 526.479Z" fill="black" fill-opacity="0.2"/>
</svg>
